<svg width="20" height="20" viewBox="0 0 20 20" fill="none" xmlns="http://www.w3.org/2000/svg">
<path d="M5.83335 5.83334V2.50001C5.83335 2.27899 5.92115 2.06703 6.07743 1.91075C6.23371 1.75447 6.44567 1.66667 6.66669 1.66667H17.5C17.721 1.66667 17.933 1.75447 18.0893 1.91075C18.2456 2.06703 18.3334 2.27899 18.3334 2.50001V13.3333C18.3334 13.5544 18.2456 13.7663 18.0893 13.9226C17.933 14.0789 17.721 14.1667 17.5 14.1667H14.1667V17.4942C14.1667 17.9575 13.7925 18.3333 13.3275 18.3333H2.50585C2.39562 18.3334 2.28645 18.3118 2.18459 18.2697C2.08273 18.2276 1.99017 18.1657 1.91223 18.0878C1.83428 18.0099 1.77248 17.9173 1.73034 17.8154C1.68821 17.7136 1.66658 17.6044 1.66669 17.4942L1.66919 6.67251C1.66919 6.20917 2.04335 5.83334 2.50835 5.83334H5.83335ZM7.50002 5.83334H13.3275C13.7909 5.83334 14.1667 6.20751 14.1667 6.67251V12.5H16.6667V3.33334H7.50002V5.83334ZM12.5 7.50001H3.33585L3.33335 16.6667H12.5V7.50001ZM7.08585 15L4.13919 12.0533L5.31752 10.875L7.08585 12.6433L10.6209 9.10751L11.7992 10.2858L7.08585 15Z" fill="#92A9BF"/>
</svg>
