<svg width="10" height="11" viewBox="0 0 10 11" fill="none" xmlns="http://www.w3.org/2000/svg">
<path d="M2.08449 8.99682C2.18776 8.70413 2.37929 8.45067 2.63265 8.2714C2.88602 8.09212 3.18876 7.99584 3.49914 7.99584C3.80952 7.99584 4.11226 8.09212 4.36563 8.2714C4.619 8.45067 4.81052 8.70413 4.9138 8.99682H9.99755V9.99658H4.9138C4.81052 10.2893 4.619 10.5427 4.36563 10.722C4.11226 10.9013 3.80952 10.9976 3.49914 10.9976C3.18876 10.9976 2.88602 10.9013 2.63265 10.722C2.37929 10.5427 2.18776 10.2893 2.08449 9.99658H0V8.99682H2.08449ZM5.08375 5.49768C5.18703 5.20499 5.37855 4.95153 5.63192 4.77225C5.88529 4.59298 6.18803 4.4967 6.49841 4.4967C6.80879 4.4967 7.11153 4.59298 7.3649 4.77225C7.61826 4.95153 7.80979 5.20499 7.91306 5.49768H9.99755V6.49744H7.91306C7.80979 6.79013 7.61826 7.04359 7.3649 7.22286C7.11153 7.40214 6.80879 7.49842 6.49841 7.49842C6.18803 7.49842 5.88529 7.40214 5.63192 7.22286C5.37855 7.04359 5.18703 6.79013 5.08375 6.49744H0V5.49768H5.08375ZM2.08449 1.99854C2.18776 1.70584 2.37929 1.45239 2.63265 1.27311C2.88602 1.09383 3.18876 0.997559 3.49914 0.997559C3.80952 0.997559 4.11226 1.09383 4.36563 1.27311C4.619 1.45239 4.81052 1.70584 4.9138 1.99854H9.99755V2.99829H4.9138C4.81052 3.29099 4.619 3.54444 4.36563 3.72372C4.11226 3.903 3.80952 3.99927 3.49914 3.99927C3.18876 3.99927 2.88602 3.903 2.63265 3.72372C2.37929 3.54444 2.18776 3.29099 2.08449 2.99829H0V1.99854H2.08449ZM3.49914 2.99829C3.63172 2.99829 3.75886 2.94563 3.85261 2.85188C3.94635 2.75814 3.99902 2.63099 3.99902 2.49842C3.99902 2.36584 3.94635 2.23869 3.85261 2.14495C3.75886 2.0512 3.63172 1.99854 3.49914 1.99854C3.36657 1.99854 3.23942 2.0512 3.14568 2.14495C3.05193 2.23869 2.99926 2.36584 2.99927 2.49842C2.99926 2.63099 3.05193 2.75814 3.14568 2.85188C3.23942 2.94563 3.36657 2.99829 3.49914 2.99829ZM6.49841 6.49744C6.63098 6.49744 6.75813 6.44477 6.85187 6.35103C6.94562 6.25728 6.99829 6.13013 6.99829 5.99756C6.99829 5.86498 6.94562 5.73784 6.85187 5.64409C6.75813 5.55035 6.63098 5.49768 6.49841 5.49768C6.36583 5.49768 6.23869 5.55035 6.14494 5.64409C6.0512 5.73784 5.99853 5.86498 5.99853 5.99756C5.99853 6.13013 6.0512 6.25728 6.14494 6.35103C6.23869 6.44477 6.36583 6.49744 6.49841 6.49744ZM3.49914 9.99658C3.63172 9.99658 3.75886 9.94391 3.85261 9.85017C3.94635 9.75642 3.99902 9.62928 3.99902 9.4967C3.99902 9.36413 3.94635 9.23698 3.85261 9.14323C3.75886 9.04949 3.63172 8.99682 3.49914 8.99682C3.36657 8.99682 3.23942 9.04949 3.14568 9.14323C3.05193 9.23698 2.99926 9.36413 2.99927 9.4967C2.99926 9.62928 3.05193 9.75642 3.14568 9.85017C3.23942 9.94391 3.36657 9.99658 3.49914 9.99658Z" fill="#3A5BF6"/>
</svg>
