<svg width="20" height="20" viewBox="0 0 20 20" fill="none" xmlns="http://www.w3.org/2000/svg">
<path d="M17.5 3.33334H5.83333C5.39131 3.33334 4.96738 3.50893 4.65482 3.82149C4.34226 4.13405 4.16667 4.55798 4.16667 5.00001C4.16667 5.44203 4.34226 5.86596 4.65482 6.17852C4.96738 6.49108 5.39131 6.66667 5.83333 6.66667H17.5V17.5C17.5 17.721 17.4122 17.933 17.2559 18.0893C17.0996 18.2455 16.8877 18.3333 16.6667 18.3333H5.83333C4.94928 18.3333 4.10143 17.9821 3.47631 17.357C2.85119 16.7319 2.5 15.8841 2.5 15V5.00001C2.5 4.11595 2.85119 3.2681 3.47631 2.64298C4.10143 2.01786 4.94928 1.66667 5.83333 1.66667H16.6667C16.8877 1.66667 17.0996 1.75447 17.2559 1.91075C17.4122 2.06703 17.5 2.27899 17.5 2.50001V3.33334ZM4.16667 15C4.16667 15.442 4.34226 15.866 4.65482 16.1785C4.96738 16.4911 5.39131 16.6667 5.83333 16.6667H15.8333V8.33334H5.83333C5.24819 8.33428 4.6732 8.18047 4.16667 7.88751V15ZM16.6667 5.83334H5.83333C5.61232 5.83334 5.40036 5.74554 5.24408 5.58926C5.0878 5.43298 5 5.22102 5 5.00001C5 4.77899 5.0878 4.56703 5.24408 4.41075C5.40036 4.25447 5.61232 4.16667 5.83333 4.16667H16.6667V5.83334Z" fill="#92A9BF"/>
</svg>
