<svg width="80" height="80" viewBox="0 0 80 80" fill="none" xmlns="http://www.w3.org/2000/svg">
<g opacity="0.4">
<path d="M40 23.3333C47.0725 23.3333 53.8552 26.1428 58.8562 31.1438C63.8572 36.1448 66.6667 42.9276 66.6667 50C66.6667 57.0724 63.8572 63.8552 58.8562 68.8562C53.8552 73.8572 47.0725 76.6667 40 76.6667C32.9276 76.6667 26.1448 73.8572 21.1439 68.8562C16.1429 63.8552 13.3334 57.0724 13.3334 50C13.3334 42.9276 16.1429 36.1448 21.1439 31.1438C26.1448 26.1428 32.9276 23.3333 40 23.3333V23.3333ZM40 30C34.6957 30 29.6086 32.1071 25.8579 35.8579C22.1072 39.6086 20 44.6957 20 50C20 55.3043 22.1072 60.3914 25.8579 64.1421C29.6086 67.8929 34.6957 70 40 70C45.3044 70 50.3914 67.8929 54.1422 64.1421C57.8929 60.3914 60 55.3043 60 50C60 44.6957 57.8929 39.6086 54.1422 35.8579C50.3914 32.1071 45.3044 30 40 30ZM40 35L44.41 43.9333L54.2667 45.3667L47.1334 52.3167L48.8167 62.1367L40 57.5L31.1834 62.1333L32.8667 52.3167L25.7334 45.3633L35.59 43.93L40 35ZM60 6.66666V16.6667L55.4567 20.46C51.6865 18.4819 47.5703 17.2494 43.3334 16.83V6.66666H60ZM36.6667 6.66333V16.83C32.4312 17.2488 28.3161 18.4802 24.5467 20.4567L20 16.6667V6.66666L36.6667 6.66333Z" fill="white"/>
</g>
</svg>
