<svg width="50" height="50" viewBox="0 0 50 50" fill="none" xmlns="http://www.w3.org/2000/svg">
<circle cx="25" cy="25" r="25" fill="#2DEEA8" fill-opacity="0.2"/>
<path d="M33.8666 35.7671H31.65V33.5505C31.65 31.6505 30.225 30.2255 28.325 30.2255H21.675C19.775 30.2255 18.35 31.6505 18.35 33.5505V35.7671H16.1333V33.5505C16.1333 30.5421 18.6666 28.0088 21.675 28.0088H28.325C31.3333 28.0088 33.8666 30.5421 33.8666 33.5505V35.7671Z" fill="#2DEEA8"/>
<path d="M25 12.6504C21.3583 12.6504 18.35 15.5004 18.35 19.3004C18.35 22.9421 21.3583 25.9504 25 25.9504C28.6416 25.9504 31.65 22.9421 31.65 19.3004C31.65 15.5004 28.6416 12.6504 25 12.6504ZM25 23.7337C22.625 23.7337 20.5666 21.6754 20.5666 19.3004C20.5666 16.9254 22.625 14.8671 25 14.8671C27.375 14.8671 29.4333 16.9254 29.4333 19.3004C29.4333 21.6754 27.375 23.7337 25 23.7337Z" fill="#2DEEA8"/>
<path d="M33.8667 13.5996C33.2334 13.5996 32.7584 13.7579 32.125 13.9163C32.6 14.5496 32.9167 15.0246 33.2334 15.6579C33.3917 15.6579 33.7084 15.6579 33.8667 15.6579C36.0834 15.6579 37.825 17.3996 37.825 19.6163C37.825 21.8329 36.0834 23.5746 33.8667 23.5746C33.55 23.5746 33.075 23.5746 32.7584 23.4163C32.4417 24.0496 31.9667 24.6829 31.4917 25.1579C32.2834 25.4746 32.9167 25.6329 33.8667 25.6329C37.1917 25.6329 39.8834 22.9413 39.8834 19.6163C39.8834 16.2913 37.1917 13.5996 33.8667 13.5996Z" fill="#2DEEA8"/>
<path d="M36.8751 27.6914H35.7667V29.7497H36.8751C38.6167 29.7497 39.8834 31.1747 39.8834 32.7581V34.8164H41.9417V32.7581C41.9417 29.9081 39.7251 27.6914 36.8751 27.6914Z" fill="#2DEEA8"/>
<path d="M15.975 13.5996C16.6083 13.5996 17.0833 13.7579 17.7166 13.9163C17.4 14.5496 16.925 15.0246 16.7666 15.6579C16.6083 15.6579 16.2916 15.6579 16.1333 15.6579C13.9166 15.6579 12.175 17.3996 12.175 19.6163C12.175 21.8329 13.9166 23.5746 16.1333 23.5746C16.45 23.5746 16.925 23.5746 17.2416 23.4163C17.5583 24.0496 18.0333 24.6829 18.5083 25.1579C17.7166 25.4746 17.0833 25.6329 16.1333 25.6329C12.8083 25.6329 10.1166 22.9413 10.1166 19.6163C9.9583 16.2913 12.65 13.5996 15.975 13.5996Z" fill="#2DEEA8"/>
<path d="M12.9667 27.6914H14.075V29.7497H12.9667C11.225 29.7497 9.95835 31.1747 9.95835 32.7581V34.8164H8.05835V32.7581C8.05835 29.9081 10.275 27.6914 12.9667 27.6914Z" fill="#2DEEA8"/>
</svg>
