<svg width="20" height="20" viewBox="0 0 20 20" fill="none" xmlns="http://www.w3.org/2000/svg">
<path d="M9.99996 18.3333C5.39746 18.3333 1.66663 14.6025 1.66663 10C1.66663 5.39751 5.39746 1.66667 9.99996 1.66667C14.6025 1.66667 18.3333 5.39751 18.3333 10C18.3333 14.6025 14.6025 18.3333 9.99996 18.3333ZM9.99996 16.6667C11.7681 16.6667 13.4638 15.9643 14.714 14.7141C15.9642 13.4638 16.6666 11.7681 16.6666 10C16.6666 8.2319 15.9642 6.5362 14.714 5.28596C13.4638 4.03572 11.7681 3.33334 9.99996 3.33334C8.23185 3.33334 6.53616 4.03572 5.28591 5.28596C4.03567 6.5362 3.33329 8.2319 3.33329 10C3.33329 11.7681 4.03567 13.4638 5.28591 14.7141C6.53616 15.9643 8.23185 16.6667 9.99996 16.6667ZM10.8333 10H14.1666V11.6667H9.16663V5.83334H10.8333V10Z" fill="#92A9BF"/>
</svg>
