<svg width="80" height="80" viewBox="0 0 80 80" fill="none" xmlns="http://www.w3.org/2000/svg">
<g opacity="0.4">
<path d="M58.7268 19.8933L63.5701 15.05L68.2835 19.7633L63.4401 24.6067C68.226 30.5972 70.5365 38.1929 69.8971 45.8338C69.2576 53.4746 65.7168 60.5807 60.0018 65.6924C54.2868 70.8042 46.8314 73.5337 39.1668 73.3203C31.5022 73.1069 24.2102 69.9669 18.7884 64.5451C13.3666 59.1233 10.2266 51.8313 10.0132 44.1667C9.79985 36.5021 12.5293 29.0467 17.6411 23.3317C22.7528 17.6167 29.8589 14.0759 37.4997 13.4364C45.1406 12.797 52.7363 15.1074 58.7268 19.8933V19.8933ZM40.0002 66.6667C43.0643 66.6667 46.0985 66.0631 48.9294 64.8905C51.7604 63.7179 54.3326 61.9992 56.4993 59.8325C58.666 57.6658 60.3847 55.0936 61.5573 52.2626C62.73 49.4317 63.3335 46.3975 63.3335 43.3333C63.3335 40.2692 62.73 37.235 61.5573 34.4041C60.3847 31.5731 58.666 29.0009 56.4993 26.8342C54.3326 24.6675 51.7604 22.9488 48.9294 21.7762C46.0985 20.6035 43.0643 20 40.0002 20C33.8118 20 27.8768 22.4583 23.501 26.8342C19.1251 31.21 16.6668 37.145 16.6668 43.3333C16.6668 49.5217 19.1251 55.4567 23.501 59.8325C27.8768 64.2084 33.8118 66.6667 40.0002 66.6667V66.6667ZM36.6668 26.6667H43.3335V46.6667H36.6668V26.6667ZM26.6668 3.33334H53.3335V10H26.6668V3.33334Z" fill="white"/>
</g>
</svg>
